<svg width="35" height="35" viewBox="0 0 35 35" fill="none" xmlns="http://www.w3.org/2000/svg">
<path d="M17.0833 0C7.65333 0 0 7.65333 0 17.0833C0 26.5133 7.65333 34.1667 17.0833 34.1667C26.5133 34.1667 34.1667 26.5133 34.1667 17.0833C34.1667 7.65333 26.5133 0 17.0833 0ZM25.01 11.6167C24.7537 14.3158 23.6433 20.8758 23.0796 23.8996C22.8404 25.1808 22.3621 25.6079 21.9179 25.6592C20.9271 25.7446 20.1754 25.01 19.2188 24.3779C17.7154 23.3871 16.8613 22.7721 15.4092 21.8154C13.7179 20.705 14.8112 20.09 15.785 19.0992C16.0413 18.8429 20.4146 14.8625 20.5 14.5037C20.5119 14.4494 20.5103 14.393 20.4954 14.3394C20.4805 14.2858 20.4528 14.2367 20.4146 14.1963C20.3121 14.1108 20.1754 14.145 20.0558 14.1621C19.9021 14.1962 17.5104 15.785 12.8467 18.9283C12.1633 19.3896 11.5483 19.6287 11.0017 19.6117C10.3867 19.5946 9.225 19.27 8.35375 18.9796C7.2775 18.6379 6.44042 18.45 6.50875 17.8521C6.54292 17.5446 6.97 17.2371 7.77292 16.9125C12.7613 14.7429 16.0754 13.3079 17.7325 12.6246C22.4817 10.6429 23.4554 10.3012 24.1046 10.3012C24.2413 10.3012 24.5658 10.3354 24.7708 10.5062C24.9417 10.6429 24.9929 10.8308 25.01 10.9675C24.9929 11.07 25.0271 11.3775 25.01 11.6167Z" fill="#404040"/>
</svg>
