<svg width="385" height="328" viewBox="0 0 385 328" fill="none" xmlns="http://www.w3.org/2000/svg">
<path fill-rule="evenodd" clip-rule="evenodd" d="M144.784 108.665C154.872 98.5455 168.312 92.464 182.574 91.5662L232.386 88.4302C256.135 86.9354 278.332 100.287 288.142 121.967C297.952 143.646 293.328 169.134 276.528 185.986L241.291 221.335C231.203 231.454 217.762 237.536 203.501 238.434L153.688 241.569C129.939 243.064 107.742 229.712 97.9323 208.033C88.1227 186.353 92.7463 160.865 109.546 144.013L144.784 108.665ZM196.976 131.21C185.081 131.959 173.87 137.031 165.455 145.472L154.703 156.259C146.842 164.144 144.678 176.07 149.268 186.214C153.858 196.357 164.245 202.604 175.356 201.904L190.557 200.947C202.452 200.199 213.663 195.126 222.078 186.685L232.83 175.898C240.691 168.013 242.855 156.088 238.265 145.944C233.675 135.801 223.289 129.553 212.177 130.253L196.976 131.21Z" fill="#241051"/>
<rect x="333.204" y="6.34082" width="43.0123" height="155.181" rx="21.5061" transform="rotate(43.8341 333.204 6.34082)" fill="#241051"/>
<path d="M332.079 7.66724C341.704 -2.30479 357.591 -2.58647 367.563 7.03833L377.117 16.26C385.864 24.702 387.154 37.9603 380.845 47.8206C380.731 47.9216 380.62 48.0267 380.512 48.135L380.072 48.5745C379.417 49.2295 378.7 49.8184 377.929 50.3323L376.609 51.2122C375.486 51.9606 374.217 52.463 372.886 52.6848C369.051 53.3241 365.988 56.2274 365.145 60.0227L364.593 62.5061C364.044 64.9767 362.801 67.2399 361.012 69.0295L360.963 69.0774C360.835 69.2052 360.715 69.3388 360.601 69.4758C350.919 78.74 335.565 78.7788 325.837 69.3899L316.282 60.1682C306.31 50.5432 306.03 34.6569 315.654 24.6848L332.079 7.66724Z" fill="#241051"/>
<path d="M152.819 5.04811L259.296 6.53444L266.268 7.81276C269.505 8.40619 271.503 11.6866 270.545 14.8342C270.29 15.6714 269.839 16.4365 269.229 17.0647L246.405 40.5999C242.604 44.5197 237.72 47.219 232.379 48.3538C231.242 48.5953 230.091 48.7628 228.934 48.8587L173.637 48.0862C156.226 47.8431 139.61 55.3611 128.3 68.5999L72.1445 134.331C57.3982 151.592 53.9568 175.821 63.3153 196.504L85.5956 245.745C94.9545 266.428 115.426 279.837 138.126 280.155L224.57 281.363C241.981 281.606 258.598 274.088 269.908 260.849L275.841 253.904C276.144 253.663 276.425 253.391 276.679 253.09L282.558 246.116C285.185 243 288.464 240.496 292.163 238.782L293.976 237.944C298.836 235.692 304.129 234.526 309.485 234.526H341.605C342.344 234.526 343.069 234.728 343.702 235.109C345.845 236.399 346.326 239.3 344.714 241.212L337.813 249.398C337.334 249.967 336.97 250.584 336.718 251.225L289.315 306.71C278.005 319.949 261.388 327.468 243.977 327.225L100.131 325.216C77.4312 324.899 56.9595 311.489 47.6005 290.806L5.20793 197.115C-4.15071 176.431 -0.711103 152.202 14.0351 134.942L107.481 25.5618C118.792 12.3228 135.408 4.80494 152.819 5.04811Z" fill="#241051"/>
</svg>
